P3
8 7
255
150 100 200 0 0 0 255 0 0 0 0 0 0 0 0 0 0 0 0 0 0 0 0 0
0 3 3 3 3 0 0 7 7 7 7 0 0 11 11 11 11 0 0 15 15 15 15 0 
0 3 0 0 3 0 0 7 0 0 0 0 0 11 0 0 0 0 0 15 0 0 15 0 
0 3 3 3 3 0 0 7 7 7 0 0 0 11 11 11 0 0 0 15 15 15 15 0 
0 3 0 0 3 0 0 7 0 0 0 0 0 11 0 0 0 0 0 15 0 0 0 0 
0 3 3 3 3 0 0 7 7 7 7 0 0 11 11 11 11 0 0 15 0 0 0 0 
150 100 200 0 0 0 150 100 200 0 0 0 0 0 0 0 0 0 0 0 0 0 0 0 